mtllib players/chicken/CR_Chicken.mtl

o Chick
v 1.760482 0.689883 2.310117
v 1.760482 0.689883 -1.533059
v 1.760482 2.310117 2.310117
v 1.760482 2.310117 -1.533059
v 1.760482 7.000000 3.000000
v 0.505472 7.000000 2.245734
v 0.505472 7.000000 -0.236647
v 1.760482 7.000000 -0.990911
v 1.760482 -0.000000 -3.000000
v 1.760482 3.000000 -0.990909
v 1.760482 3.000000 -3.000000
v 1.760482 0.000000 3.
v 2.760482 0.689883 -1.533059
v 2.760482 2.310117 -1.533059
v 2.760482 0.689883 2.310117
v 2.760482 2.310117 2.310117
v 1.760481 5.993043 1.982290
v 1.760481 5.993043 1.346761
v 0.505472 8.000000 2.245734
v -0.505472 8.000000 -0.236647
v 0.505472 8.000000 -0.236647
v 1.416010 -0.000000 -0.003759
v 1.185251 -0.000000 -3.000000
v 0.487621 4.039607 3.000000
v 1.185251 3.000000 -3.000000
v 1.416010 -0.000000 -0.538837
v 0.487621 5.960393 3.000000
v 1.185251 -0.000000 -3.500000
v 1.185251 3.000000 -3.500000
v -0.487621 5.960393 3.000000
v 0.487621 4.039608 4.000000
v 1.760481 5.358158 1.346762
v 1.760481 5.358158 1.982290
v 0.487621 5.000000 3.000000
v 0.487621 5.000000 4.000000
v 0.487621 5.960393 4.470671
v 0.487621 5.000000 4.470671
v 0.891515 -0.000000 -0.003759
v 0.891515 -0.000000 -0.538837
v 0.891515 -2.005059 -0.003759
v 0.891515 -2.005059 -0.538837
v 1.416010 -2.005059 -0.003759
v 1.416010 -2.005059 -0.538837
v 0.459250 -2.005059 0.437227
v 0.459250 -2.005059 -0.979824
v 1.848275 -2.005059 -0.979824
v 0.459250 -2.455257 -0.979824
v 1.848275 -2.455257 -0.979824
v 1.066347 -2.005059 -0.003759
v 0.922259 -2.005059 0.437227
v 1.385267 -2.005059 0.437227
v 0.922259 -2.455257 0.437227
v 1.385267 -2.455257 0.437227
v 1.385267 -2.005059 1.413338
v 1.848275 -2.005059 1.413338
v 1.385267 -2.455257 1.413338
v 1.848275 -2.455257 1.413338
v 0.459250 -2.005059 1.413338
v 0.459250 -2.455257 1.413338
v 0.922259 -2.005059 1.413338
v 0.922259 -2.455257 1.413338
v 1.760482 5.000000 3.000000
v -1.760482 0.689883 2.310117
v -1.760482 0.689883 -1.533059
v -1.760482 2.310117 2.310117
v -1.760482 2.310117 -1.533059
v -0.505472 7.000000 2.245734
v -0.505472 7.000000 -0.236647
v -1.760482 -0.000000 -3.000000
v -1.760482 3.000000 -0.990909
v -1.760482 3.000000 -3.000000
v -1.760482 0.000000 3.000000
v -2.760482 0.689883 -1.533059
v -2.760482 2.310117 -1.533059
v -2.760482 0.689883 2.310117
v -2.760482 2.310117 2.310117
v -1.760481 5.993043 1.982290
v -1.760481 5.993043 1.346761
v -0.505472 8.000000 2.245734
v -1.416010 -0.000000 -0.003759
v -1.185251 -0.000000 -3.000000
v -0.487621 4.039607 3.000000
v -1.185251 3.000000 -3.000000
v -1.416010 -0.000000 -0.538837
v -1.185251 -0.000000 -3.500000
v -1.185251 3.000000 -3.500000
v -0.487621 4.039608 4.000000
v -1.760481 5.358158 1.346762
v -1.760481 5.358158 1.982290
v -0.487621 5.000000 3.000000
v -0.487621 5.000000 4.000000
v -0.487621 5.960393 4.470671
v -0.487621 5.000000 4.470671
v -0.891515 -0.000000 -0.003759
v -0.891515 -0.000000 -0.538837
v -0.891515 -2.005059 -0.003759
v -0.891515 -2.005059 -0.538837
v -1.416010 -2.005059 -0.003759
v -1.416010 -2.005059 -0.538837
v -0.459250 -2.005059 -0.979824
v -1.848275 -2.005059 0.437227
v -1.848275 -2.005059 -0.979824
v -0.459250 -2.455257 -0.979824
v -1.848275 -2.455257 -0.979824
v -0.922259 -2.005059 0.437227
v -1.385267 -2.005059 0.437227
v -0.922259 -2.455257 0.437227
v -1.385267 -2.455257 0.437227
v -1.385267 -2.005059 1.413338
v -1.848275 -2.005059 1.413338
v -1.385267 -2.455257 1.413338
v -1.848275 -2.455257 1.413338
v -0.459250 -2.005059 1.413338
v -0.459250 -2.455257 1.413338
v -0.922259 -2.005059 1.413338
v -0.922259 -2.455257 1.413338
v -1.760482 7.000000 3.000000
v -1.760482 7.000000 -0.990911
v -1.760482 5.000000 -0.990909
vn -0.0000 -0.0000 -1.0000
vn 1.0000 -0.0000 -0.0000
vn -0.0000 -0.0000 1.0000
vn -0.0000 1.0000 -0.0000
vn -1.0000 -0.0000 -0.0000
vn -0.0000 -1.0000 -0.0000
s 0
usemtl Chick_main
f 83//1 69//1 71//1
f 16//2 13//2 14//2
f 75//3 65//3 76//3
f 14//4 3//4 16//4
f 28//1 86//1 29//1
f 33//2 5//2 62//2
f 78//5 119//5 88//5
f 2//2 12//2 9//2
f 15//6 2//6 13//6
f 25//4 83//4 70//4
f 95//4 80//4 94//4
f 64//6 75//6 73//6
f 73//5 76//5 74//5
f 74//1 64//1 73//1
f 118//4 117//4 68//4
f 15//3 3//3 1//3
f 119//1 8//1 10//1
f 18//2 10//2 8//2
f 85//5 83//5 86//5
f 14//1 2//1 4//1
f 28//2 25//2 23//2
f 76//4 66//4 74//4
f 25//1 9//1 23//1
f 117//3 12//3 62//3
f 6//4 8//4 7//4
f 26//4 38//4 22//4
f 81//6 23//6 12//6
f 66//2 63//2 64//2
f 70//5 72//5 89//5
f 83//1 81//1 69//1
f 16//2 15//2 13//2
f 75//3 63//3 65//3
f 14//4 4//4 3//4
f 28//1 85//1 86//1
f 62//2 32//2 33//2
f 33//2 17//2 5//2
f 78//5 118//5 119//5
f 11//2 4//2 2//2
f 1//2 3//2 12//2
f 9//2 11//2 2//2
f 2//2 1//2 12//2
f 15//6 1//6 2//6
f 70//4 10//4 11//4
f 25//4 29//4 86//4
f 70//4 11//4 25//4
f 83//4 71//4 70//4
f 25//4 86//4 83//4
f 95//4 84//4 80//4
f 64//6 63//6 75//6
f 73//5 75//5 76//5
f 74//1 66//1 64//1
f 117//4 5//4 6//4
f 117//4 6//4 67//4
f 7//4 8//4 118//4
f 117//4 67//4 68//4
f 68//4 7//4 118//4
f 15//3 16//3 3//3
f 10//1 70//1 119//1
f 119//1 118//1 8//1
f 62//2 12//2 3//2
f 3//2 4//2 11//2
f 3//2 11//2 10//2
f 32//2 62//2 3//2
f 5//2 17//2 18//2
f 32//2 3//2 10//2
f 8//2 5//2 18//2
f 18//2 32//2 10//2
f 85//5 81//5 83//5
f 14//1 13//1 2//1
f 28//2 29//2 25//2
f 76//4 65//4 66//4
f 25//1 11//1 9//1
f 62//3 5//3 117//3
f 117//3 72//3 12//3
f 6//4 5//4 8//4
f 26//4 39//4 38//4
f 12//6 72//6 69//6
f 81//6 85//6 28//6
f 12//6 69//6 81//6
f 23//6 9//6 12//6
f 81//6 28//6 23//6
f 66//2 65//2 63//2
f 70//5 71//5 69//5
f 117//5 118//5 78//5
f 117//5 78//5 77//5
f 70//5 69//5 72//5
f 88//5 119//5 70//5
f 117//5 77//5 89//5
f 89//5 88//5 70//5
f 72//5 117//5 89//5
usemtl Chick_orange
f 100//2 114//2 103//2
f 52//3 51//3 50//3
f 107//3 106//3 108//3
f 111//3 110//3 112//3
f 112//5 101//5 102//5
f 39//1 43//1 41//1
f 101//4 99//4 102//4
f 41//5 38//5 39//5
f 44//5 47//5 59//5
f 104//1 100//1 103//1
f 36//2 35//2 34//2
f 40//3 49//3 22//3
f 46//4 43//4 42//4
f 45//1 48//1 47//1
f 27//4 92//4 36//4
f 56//5 51//5 53//5
f 55//2 48//2 46//2
f 59//3 60//3 58//3
f 30//5 91//5 93//5
f 114//3 115//3 116//3
f 97//2 94//2 96//2
f 58//4 50//4 49//4
f 47//6 48//6 52//6
f 96//4 106//4 105//4
f 111//2 106//2 109//2
f 96//3 80//3 98//3
f 103//6 108//6 104//6
f 60//2 52//2 50//2
f 56//3 55//3 54//3
f 99//1 95//1 97//1
f 98//5 84//5 99//5
f 115//5 107//5 116//5
f 42//2 26//2 22//2
f 92//3 37//3 36//3
f 91//6 37//6 93//6
f 100//2 113//2 114//2
f 52//3 53//3 51//3
f 107//3 105//3 106//3
f 111//3 109//3 110//3
f 102//5 104//5 112//5
f 112//5 110//5 101//5
f 39//1 26//1 43//1
f 101//4 98//4 99//4
f 41//5 40//5 38//5
f 59//5 58//5 44//5
f 44//5 45//5 47//5
f 104//1 102//1 100//1
f 34//2 27//2 36//2
f 36//2 37//2 35//2
f 22//3 38//3 40//3
f 49//3 42//3 22//3
f 51//4 54//4 55//4
f 45//4 44//4 40//4
f 45//4 40//4 41//4
f 51//4 55//4 46//4
f 42//4 49//4 51//4
f 45//4 41//4 43//4
f 42//4 51//4 46//4
f 46//4 45//4 43//4
f 45//1 46//1 48//1
f 27//4 30//4 92//4
f 56//5 54//5 51//5
f 55//2 57//2 48//2
f 59//3 61//3 60//3
f 93//5 92//5 30//5
f 30//5 90//5 91//5
f 114//3 113//3 115//3
f 97//2 95//2 94//2
f 40//4 44//4 58//4
f 58//4 60//4 50//4
f 50//4 51//4 49//4
f 49//4 40//4 58//4
f 61//6 59//6 47//6
f 48//6 57//6 56//6
f 48//6 56//6 53//6
f 52//6 61//6 47//6
f 48//6 53//6 52//6
f 100//4 102//4 99//4
f 100//4 99//4 97//4
f 115//4 113//4 100//4
f 105//4 115//4 100//4
f 100//4 97//4 96//4
f 96//4 98//4 101//4
f 101//4 110//4 109//4
f 101//4 109//4 106//4
f 105//4 100//4 96//4
f 96//4 101//4 106//4
f 111//2 108//2 106//2
f 96//3 94//3 80//3
f 103//6 114//6 116//6
f 103//6 116//6 107//6
f 111//6 112//6 104//6
f 103//6 107//6 108//6
f 108//6 111//6 104//6
f 60//2 61//2 52//2
f 56//3 57//3 55//3
f 99//1 84//1 95//1
f 98//5 80//5 84//5
f 115//5 105//5 107//5
f 42//2 43//2 26//2
f 92//3 93//3 37//3
f 91//6 35//6 37//6
usemtl Chick_black
f 33//2 18//2 17//2
f 89//5 78//5 88//5
f 33//2 32//2 18//2
f 89//5 77//5 78//5
usemtl Chick_pink
f 21//2 6//2 7//2
f 79//3 6//3 19//3
f 82//5 91//5 90//5
f 24//2 35//2 31//2
f 20//5 67//5 79//5
f 7//1 20//1 21//1
f 91//3 31//3 35//3
f 21//4 79//4 19//4
f 31//6 82//6 24//6
f 21//2 19//2 6//2
f 79//3 67//3 6//3
f 82//5 87//5 91//5
f 24//2 34//2 35//2
f 20//5 68//5 67//5
f 7//1 68//1 20//1
f 91//3 87//3 31//3
f 21//4 20//4 79//4
f 31//6 87//6 82//6
