# Blender 4.2.1 LTS
# www.blender.org
mtllib plants/trees/mid/tree_mid.mtl
o Tree_L2_Leaves
v -2.000000 2.000000 2.000000
v -2.000000 3.000000 2.000000
v -2.000000 2.000000 -2.000000
v -2.000000 3.000000 -2.000000
v 2.000000 2.000000 2.000000
v 2.000000 3.000000 2.000000
v 2.000000 2.000000 -2.000000
v 2.000000 3.000000 -2.000000
v -2.000000 5.000000 2.000000
v -2.000000 5.000000 -2.000000
v 2.000000 5.000000 -2.000000
v 2.000000 5.000000 2.000000
v -2.000000 6.000000 2.000000
v -2.000000 6.000000 -2.000000
v 2.000000 6.000000 -2.000000
v 2.000000 6.000000 2.000000
v -2.000000 8.000000 1.999999
v -2.000000 8.000000 -2.000001
v 2.000000 8.000000 -2.000001
v 2.000000 8.000000 1.999999
v -2.000000 9.000000 1.999999
v -2.000000 9.000000 -2.000001
v 2.000000 9.000000 -2.000001
v 2.000000 9.000000 1.999999
vn -1.0000 -0.0000 -0.0000
vn -0.0000 -0.0000 1.0000
vn -0.0000 -0.0000 -1.0000
vn 1.0000 -0.0000 -0.0000
vn -0.0000 -1.0000 -0.0000
vn -0.0000 1.0000 -0.0000
s 0
usemtl Leaves_1
f 14//1 17//1 18//1
f 13//2 20//2 17//2
f 8//3 10//3 11//3
f 2//2 12//2 9//2
f 15//4 19//4 16//4
f 3//5 5//5 1//5
f 4//1 9//1 10//1
f 14//1 13//1 17//1
f 13//2 16//2 20//2
f 11//4 12//4 6//4
f 8//3 4//3 10//3
f 11//4 6//4 8//4
f 2//2 6//2 12//2
f 15//3 14//3 18//3
f 19//4 20//4 16//4
f 15//3 18//3 19//3
f 3//5 7//5 5//5
f 4//1 2//1 9//1
usemtl Leaves_2
f 5//2 2//2 1//2
f 10//1 13//1 14//1
f 11//3 14//3 15//3
f 12//4 15//4 16//4
f 9//2 16//2 13//2
f 18//1 21//1 22//1
f 17//2 24//2 21//2
f 19//3 22//3 23//3
f 20//4 23//4 24//4
f 3//3 8//3 7//3
f 1//1 4//1 3//1
f 7//4 6//4 5//4
f 21//6 23//6 22//6
f 5//2 6//2 2//2
f 10//1 9//1 13//1
f 11//3 10//3 14//3
f 12//4 11//4 15//4
f 9//2 12//2 16//2
f 18//1 17//1 21//1
f 17//2 20//2 24//2
f 19//3 18//3 22//3
f 20//4 19//4 23//4
f 3//3 4//3 8//3
f 1//1 2//1 4//1
f 7//4 8//4 6//4
f 21//6 24//6 23//6
o Tree_L2_Log
v -1.000000 0.000000 1.000000
v -1.000000 2.000000 1.000000
v -1.000000 -0.000000 -1.000000
v -1.000000 2.000000 -1.000000
v 1.000000 0.000000 1.000000
v 1.000000 2.000000 1.000000
v 1.000000 -0.000000 -1.000000
v 1.000000 2.000000 -1.000000
v -1.000000 -0.000000 -0.333333
v -1.000000 2.000000 -0.333333
v 1.000000 0.000000 0.333333
v 1.000000 2.000000 0.333333
v 0.333333 -0.000000 -1.000000
v 0.333333 2.000000 -1.000000
v -0.333333 0.000000 1.000000
v -0.333333 2.000000 1.000000
vn -1.0000 -0.0000 -0.0000
vn -0.0000 -0.0000 -1.0000
vn 1.0000 -0.0000 -0.0000
vn -0.0000 -1.0000 -0.0000
vn -0.0000 -0.0000 1.0000
s 0
usemtl Log_1
f 26//7 33//7 25//7
f 28//8 37//8 27//8
f 32//9 35//9 31//9
f 35//10 33//10 37//10
f 30//11 39//11 29//11
f 26//7 34//7 33//7
f 28//8 38//8 37//8
f 32//9 36//9 35//9
f 35//10 29//10 39//10
f 39//10 25//10 33//10
f 33//10 27//10 37//10
f 37//10 31//10 35//10
f 35//10 39//10 33//10
f 30//11 40//11 39//11
usemtl Log_2
f 35//9 30//9 29//9
f 33//7 28//7 27//7
f 37//8 32//8 31//8
f 39//11 26//11 25//11
f 35//9 36//9 30//9
f 33//7 34//7 28//7
f 37//8 38//8 32//8
f 39//11 40//11 26//11
