# Blender 4.2.1 LTS
# www.blender.org
mtllib plants/water-lily/water-lily.mtl
o Cube
v -1.500000 -0.300000 1.500000
v -1.500000 0.300000 1.500000
v -1.500000 -0.300000 -1.500000
v -1.500000 0.300000 -1.500000
v 1.500000 -0.300000 1.500000
v 1.500000 0.300000 1.500000
v 0.000000 0.300000 -1.500000
v 0.750000 0.300000 -1.500000
v 0.750000 -0.300000 -1.500000
v -0.750000 0.300000 -1.500000
v 1.500000 0.300000 -0.000000
v 0.000000 0.300000 -0.000000
v 1.500000 -0.300000 -0.750000
v 1.500000 0.300000 -0.750000
v 0.750000 0.300000 -0.750000
v 0.750000 -0.300000 -0.750000
v 1.500000 0.300000 0.750000
v 0.000000 0.300000 0.750000
v -0.750000 0.300000 0.750000
v -1.500000 0.300000 0.750000
vn -0.0000 1.0000 -0.0000
vn -0.0000 -1.0000 -0.0000
vn -1.0000 -0.0000 -0.0000
vn -0.0000 -0.0000 -1.0000
vn -0.0000 -0.0000 1.0000
vn 1.0000 -0.0000 -0.0000
s 0
usemtl Material.001
f 12//1 15//1 7//1
f 16//2 5//2 3//2
f 19//1 6//1 18//1
f 12//1 11//1 14//1
f 15//1 8//1 7//1
f 12//1 14//1 15//1
f 3//2 9//2 16//2
f 16//2 13//2 5//2
f 5//2 1//2 3//2
f 19//1 10//1 4//1
f 20//1 2//1 6//1
f 19//1 4//1 20//1
f 6//1 17//1 18//1
f 19//1 20//1 6//1
usemtl Material.002
f 20//3 3//3 2//3
f 9//4 4//4 10//4
f 2//5 5//5 6//5
f 16//6 8//6 15//6
f 11//6 5//6 14//6
f 12//1 10//1 18//1
f 20//3 4//3 3//3
f 3//3 1//3 2//3
f 7//4 8//4 9//4
f 9//4 3//4 4//4
f 10//4 7//4 9//4
f 2//5 1//5 5//5
f 15//4 14//4 13//4
f 16//6 9//6 8//6
f 15//4 13//4 16//4
f 17//6 6//6 5//6
f 5//6 13//6 14//6
f 11//6 17//6 5//6
f 17//1 11//1 12//1
f 12//1 7//1 10//1
f 10//1 19//1 18//1
f 18//1 17//1 12//1
